<?xml version="1.0" encoding="iso-8859-1"?>
<!-- Generator: Adobe Illustrator 19.0.0, SVG Export Plug-In . SVG Version: 6.00 Build 0)  -->
<svg version="1.1" id="Capa_1" xmlns="http://www.w3.org/2000/svg" xmlns:xlink="http://www.w3.org/1999/xlink" x="0px" y="0px"
	 viewBox="0 0 512.017 512.017" style="enable-background:new 0 0 512.017 512.017;" xml:space="preserve">
<g transform="translate(0 -1)">
	<path style="fill:#FFA800;" d="M384.93,291.824L211.396,488.346c-12.13,14.013-31.411,19.508-49.106,13.995
		c-7.687-2.447-14.617-6.825-20.129-12.715h-0.081c-16.645-17.904-18.764-44.915-5.114-65.195l106.977-157.525
		c4.058-5.975,4.058-13.822,0-19.797L136.966,89.584c-13.65-20.28-11.532-47.291,5.114-65.195h0.081
		c5.512-5.89,12.442-10.268,20.129-12.715c17.695-5.514,36.976-0.019,49.106,13.995L384.93,222.192
		C402.218,242.183,402.218,271.832,384.93,291.824z"/>
	<path style="fill:#FFFFFF;" d="M149.512,424.432c-14.277,20.154-12.009,47.652,5.376,65.195h0.084
		c2.547,2.531,5.349,4.79,8.364,6.741c-4.036,2.676-8.472,4.692-13.141,5.973c-8.006-2.403-15.282-6.774-21.163-12.715h-0.085
		c-17.467-17.505-19.739-45.064-5.376-65.195L236.04,266.906c4.267-5.909,4.267-13.888,0-19.797L123.571,89.584
		c-14.363-20.13-12.091-47.689,5.376-65.195h0.085c5.88-5.941,13.156-10.312,21.163-12.715c4.67,1.281,9.106,3.297,13.141,5.973
		c-3.014,1.951-5.817,4.21-8.364,6.741h-0.084c-17.385,17.543-19.653,45.041-5.376,65.195l112.469,157.525
		c4.267,5.909,4.267,13.888,0,19.797L149.512,424.432z"/>
	<path style="fill:#FEDD0A;" d="M355.422,291.824L172.979,488.346c-2.847,3.086-6.09,5.783-9.643,8.021
		c-3.014-1.951-5.817-4.21-8.364-6.741h-0.084c-17.385-17.543-19.653-45.041-5.376-65.195l112.469-157.525
		c4.267-5.909,4.267-13.888,0-19.797L149.512,89.584c-14.277-20.154-12.009-47.652,5.376-65.195h0.084
		c2.546-2.531,5.349-4.791,8.364-6.741c3.553,2.238,6.796,4.935,9.643,8.021l182.443,196.523
		C373.683,241.81,373.683,272.205,355.422,291.824z"/>
	<g>
		<path d="M164.758,513.016c-15.35,0.049-30.104-5.942-41.075-16.679c-0.269-0.211-0.525-0.437-0.767-0.679
			c-20.484-20.418-23.148-52.674-6.292-76.176l82.983-116.229c1.771-2.48,4.731-3.827,7.765-3.533
			c3.034,0.294,5.68,2.184,6.942,4.958c1.262,2.774,0.948,6.011-0.823,8.491l-82.975,116.221
			c-11.808,16.461-10.178,39.005,3.875,53.596c0.242,0.192,0.473,0.398,0.692,0.617c7.974,8.17,18.996,12.642,30.408,12.338
			c11.445-0.153,22.325-5.001,30.092-13.408l0.767-0.858L378.008,286.02c15.067-16.409,15.067-41.62,0-58.029L195.575,31.474
			c-7.766-8.403-18.642-13.248-30.084-13.4c-11.385-0.155-22.35,4.294-30.408,12.337c-0.223,0.224-0.46,0.434-0.708,0.629
			c-14.041,14.597-15.661,37.137-3.85,53.592l100.608,141c0.243,0.26,0.468,0.535,0.675,0.825l5.558,7.804
			c1.768,2.483,2.078,5.721,0.812,8.494c-1.266,2.773-3.915,4.66-6.95,4.95s-5.993-1.061-7.762-3.544l-4.975-6.988
			c-0.236-0.255-0.456-0.525-0.658-0.808l-101.2-141.817c-16.864-23.504-14.203-55.768,6.283-76.192
			c0.25-0.249,0.514-0.482,0.792-0.7c11.4-11.055,26.772-17.052,42.646-16.638s30.913,7.204,41.721,18.838l182.442,196.529
			c21.098,22.967,21.102,58.262,0.009,81.233L208.15,494.079c-10.926,11.857-26.245,18.702-42.367,18.929
			C165.442,513.016,165.092,513.016,164.758,513.016z"/>
		<path d="M226.142,282.608c-0.573-0.016-1.144-0.073-1.708-0.171c-0.533-0.095-1.05-0.268-1.533-0.513
			c-0.546-0.187-1.064-0.447-1.542-0.771c-0.446-0.313-0.872-0.654-1.275-1.021c-0.771-0.816-1.379-1.772-1.792-2.817
			c-0.437-1.026-0.669-2.127-0.683-3.242c0.014-0.573,0.07-1.144,0.167-1.708c0.096-0.535,0.27-1.053,0.517-1.538
			c0.185-0.543,0.443-1.059,0.767-1.533c0.341-0.429,0.683-0.854,1.025-1.279c3.421-3.158,8.695-3.158,12.117,0
			c0.341,0.425,0.683,0.85,1.025,1.279c0.32,0.476,0.578,0.991,0.767,1.533c0.247,0.483,0.419,1.002,0.508,1.538
			c0.104,0.564,0.162,1.135,0.175,1.708c-0.014,1.115-0.246,2.216-0.683,3.242c-0.413,1.044-1.021,2-1.792,2.817
			C230.563,281.689,228.4,282.572,226.142,282.608L226.142,282.608z"/>
		<path d="M150.85,136.345c-3.674,0.005-6.939-2.343-8.104-5.828c-1.165-3.485,0.032-7.324,2.971-9.53l85.925-64.513
			c2.438-1.842,5.674-2.241,8.486-1.045c2.812,1.196,4.77,3.803,5.134,6.837c0.364,3.034-0.921,6.031-3.37,7.858l-85.925,64.513
			C154.492,135.746,152.696,136.346,150.85,136.345z"/>
		<path d="M193.517,196.079c-3.675,0.005-6.939-2.343-8.104-5.828c-1.165-3.485,0.032-7.324,2.971-9.53l93.433-70.142
			c2.438-1.842,5.674-2.241,8.486-1.045c2.812,1.196,4.77,3.803,5.134,6.837c0.364,3.034-0.921,6.031-3.37,7.858l-93.433,70.142
			C197.158,195.48,195.362,196.079,193.517,196.079z"/>
		<path d="M240.258,455.408c-1.843,0.001-3.635-0.597-5.108-1.704l-86.442-64.767c-3.772-2.826-4.538-8.174-1.712-11.946
			c2.826-3.772,8.174-4.538,11.946-1.713l86.442,64.767c2.939,2.205,4.137,6.043,2.975,9.528
			C247.195,453.059,243.932,455.409,240.258,455.408z"/>
		<path d="M290.433,401.391c-1.846,0.001-3.642-0.598-5.117-1.708l-93.95-70.483c-3.769-2.831-4.531-8.181-1.7-11.95
			c2.831-3.769,8.181-4.531,11.95-1.7l93.95,70.483c2.937,2.207,4.132,6.045,2.968,9.529
			C297.37,399.046,294.107,401.394,290.433,401.391L290.433,401.391z"/>
	</g>
	<g>
		<path style="fill:#FFA800;" d="M163.934,146.16c-0.595-0.071-1.193-0.1-1.792-0.085H29.875c-11.782,0-21.333-9.551-21.333-21.333
			s9.551-21.333,21.333-21.333H133.47L163.934,146.16z"/>
		<path style="fill:#FFA800;" d="M224.777,231.408H89.608c-11.782,0-21.333-9.551-21.333-21.333
			c0-11.782,9.551-21.333,21.333-21.333h72.533c2.023,0.022,4.037-0.266,5.973-0.853c3.445-1.001,6.584-2.85,9.131-5.376
			c2.719-2.73,4.637-6.154,5.546-9.899L224.777,231.408z"/>
		<path style="fill:#FFA800;" d="M503.475,466.074c0.017,5.663-2.225,11.099-6.229,15.104c-4.004,4.005-9.441,6.247-15.104,6.229
			H202.675l39.595-42.667h107.605c11.782,0,21.333-9.551,21.333-21.333s-9.551-21.333-21.333-21.333H281.95l39.594-42.667h160.598
			c11.782,0,21.333,9.551,21.333,21.333c0,11.782-9.551,21.333-21.333,21.333h-34.133c-11.782,0-21.333,9.551-21.333,21.333
			s9.551,21.333,21.333,21.333h34.133C493.922,444.745,503.471,454.294,503.475,466.074L503.475,466.074z"/>
	</g>
	<g>
		<path style="fill:#FEDD0A;" d="M138.334,146.16c-0.595-0.071-1.193-0.1-1.792-0.085H29.875c-11.782,0-21.333-9.551-21.333-21.333
			s9.551-21.333,21.333-21.333h77.995l30.379,42.667L138.334,146.16z"/>
		<path style="fill:#FEDD0A;" d="M199.177,231.408H89.608c-11.782,0-21.333-9.551-21.333-21.333
			c0-11.782,9.551-21.333,21.333-21.333h72.533c2.023,0.022,4.037-0.266,5.973-0.853L199.177,231.408z"/>
		<path style="fill:#FEDD0A;" d="M477.875,466.074c0.017,5.663-2.225,11.099-6.229,15.104c-4.004,4.005-9.441,6.247-15.104,6.229
			H202.675l39.595-42.667h107.605c11.782,0,21.333-9.551,21.333-21.333s-9.551-21.333-21.333-21.333H281.95l39.594-42.667h134.998
			c11.782,0,21.333,9.551,21.333,21.333c0,11.782-9.551,21.333-21.333,21.333h-34.133c-11.782,0-21.333,9.551-21.333,21.333
			s9.551,21.333,21.333,21.333h34.133C468.322,444.745,477.871,454.294,477.875,466.074L477.875,466.074z"/>
	</g>
	<g>
		<path d="M163.934,154.691c-0.376,0-0.752-0.025-1.125-0.075l-132.934-0.008c-10.67,0-20.53-5.693-25.865-14.933
			c-5.335-9.241-5.335-20.626,0-29.867s15.195-14.933,25.865-14.933h103.592c2.759,0,5.348,1.333,6.95,3.579l30.467,42.75
			c1.855,2.602,2.1,6.022,0.637,8.862C170.057,152.906,167.129,154.691,163.934,154.691z M29.875,111.941
			c-7.069,0-12.8,5.731-12.8,12.8c0,7.069,5.731,12.8,12.8,12.8h117.442l-18.25-25.6H29.875z"/>
		<path d="M224.858,239.941h-0.083c-4.705-0.023-8.503-3.849-8.492-8.554c0.011-4.705,3.829-8.513,8.533-8.513
			s8.522,3.808,8.533,8.513C233.361,236.092,229.563,239.918,224.858,239.941z"/>
		<path d="M224.775,239.941H89.608c-16.495,0-29.867-13.372-29.867-29.867s13.372-29.867,29.867-29.867h72.533
			c3.395-0.001,6.652-1.339,9.067-3.725c1.617-1.623,2.756-3.66,3.292-5.887c0.788-3.243,3.395-5.729,6.672-6.362
			c3.277-0.633,6.622,0.704,8.561,3.42l41.983,58.796c1.856,2.601,2.104,6.021,0.642,8.862
			C230.897,238.153,227.97,239.939,224.775,239.941z M89.608,197.274c-7.069,0-12.8,5.731-12.8,12.8c0,7.069,5.731,12.8,12.8,12.8
			H208.2l-24.683-34.567l-0.242,0.242c-5.621,5.577-13.215,8.712-21.133,8.725H89.608z"/>
		<path d="M349.875,410.608H281.95c-4.713,0-8.533-3.821-8.533-8.533c0-4.713,3.821-8.533,8.533-8.533h67.925
			c4.713,0,8.533,3.821,8.533,8.533C358.408,406.787,354.588,410.608,349.875,410.608z"/>
		<path d="M482.142,495.941H202.675c-3.394,0.002-6.467-2.009-7.824-5.119c-1.358-3.111-0.743-6.73,1.566-9.218l39.592-42.667
			c1.616-1.741,3.883-2.73,6.258-2.729h107.608c7.069,0,12.8-5.731,12.8-12.8s-5.731-12.8-12.8-12.8H281.95
			c-3.394,0.002-6.467-2.009-7.824-5.119c-1.358-3.111-0.743-6.73,1.566-9.218l39.592-42.667c1.616-1.741,3.884-2.73,6.259-2.729
			h160.6c16.495,0,29.867,13.372,29.867,29.867c0,16.495-13.372,29.867-29.867,29.867h-34.133c-7.069,0-12.8,5.731-12.8,12.8
			s5.731,12.8,12.8,12.8h34.133c10.67,0,20.53,5.693,25.865,14.933s5.335,20.626,0,29.867S492.812,495.941,482.142,495.941
			L482.142,495.941z M222.233,478.874h259.908c7.069,0,12.8-5.731,12.8-12.8c0-7.069-5.731-12.8-12.8-12.8h-34.133
			c-16.495,0-29.867-13.372-29.867-29.867c0-16.495,13.372-29.867,29.867-29.867h34.133c7.069,0,12.8-5.731,12.8-12.8
			s-5.731-12.8-12.8-12.8H325.267l-23.759,25.6h48.367c16.495,0,29.867,13.372,29.867,29.867c0,16.495-13.372,29.867-29.867,29.867
			H245.992L222.233,478.874z"/>
	</g>
</g>
<g>
</g>
<g>
</g>
<g>
</g>
<g>
</g>
<g>
</g>
<g>
</g>
<g>
</g>
<g>
</g>
<g>
</g>
<g>
</g>
<g>
</g>
<g>
</g>
<g>
</g>
<g>
</g>
<g>
</g>
</svg>
